<?xml version="1.0" encoding="UTF-8"?>
<!-- Generator: visioncortex VTracer 0.6.3 -->
<svg version="1.1" xmlns="http://www.w3.org/2000/svg" width="1280" height="400">
<path d="M0 0 C0.77 -0 1.54 -0.01 2.33 -0.01 C4.91 -0.03 7.49 -0.02 10.07 -0.02 C11.92 -0.03 13.77 -0.04 15.62 -0.04 C20.65 -0.06 25.68 -0.07 30.7 -0.07 C34.9 -0.07 39.1 -0.08 43.3 -0.08 C53.2 -0.1 63.1 -0.1 73.01 -0.1 C83.22 -0.1 93.44 -0.12 103.65 -0.15 C112.42 -0.18 121.19 -0.19 129.96 -0.19 C135.2 -0.19 140.43 -0.2 145.67 -0.22 C150.6 -0.24 155.53 -0.24 160.46 -0.22 C162.26 -0.22 164.07 -0.22 165.87 -0.24 C168.35 -0.25 170.82 -0.24 173.29 -0.23 C174 -0.24 174.71 -0.25 175.44 -0.26 C180.93 -0.18 184.77 1.56 189.4 4.27 C189.4 4.93 189.4 5.59 189.4 6.27 C189.95 6.31 190.51 6.35 191.09 6.39 C195.23 7.96 197.59 11.59 199.45 15.47 C200.56 18.74 200.64 21.37 200.64 24.83 C200.64 25.47 200.64 26.12 200.64 26.78 C200.65 28.94 200.64 31.09 200.62 33.25 C200.62 34.79 200.62 36.34 200.63 37.89 C200.63 42.09 200.61 46.28 200.6 50.48 C200.59 54.86 200.59 59.25 200.58 63.64 C200.58 71.94 200.56 80.25 200.54 88.55 C200.52 98.01 200.51 107.46 200.5 116.92 C200.48 136.37 200.44 155.82 200.4 175.27 C198.42 176.26 196.44 177.25 194.4 178.27 C189.09 173.73 184.03 169.03 179.12 164.06 C178.15 163.08 178.15 163.08 177.16 162.08 C175.11 160.02 173.07 157.96 171.02 155.89 C168.31 153.15 165.59 150.42 162.87 147.68 C162.25 147.05 161.63 146.42 160.99 145.78 C156.34 141.09 154.62 140.15 148.08 140.11 C147.43 140.1 146.77 140.1 146.1 140.09 C143.89 140.08 141.69 140.07 139.48 140.06 C137.91 140.05 136.33 140.04 134.75 140.03 C130.46 140.01 126.18 139.98 121.89 139.96 C117.41 139.94 112.93 139.91 108.45 139.89 C99.96 139.84 91.48 139.79 82.99 139.75 C73.33 139.7 63.67 139.65 54.02 139.59 C34.14 139.48 14.27 139.37 -5.6 139.27 C-6.1 138.28 -6.1 138.28 -6.6 137.27 C-7.84 136.83 -9.08 136.4 -10.35 135.95 C-16.32 133.83 -19.75 129.85 -22.6 124.27 C-24.97 117.81 -25.76 112.3 -25.78 105.43 C-25.79 104.54 -25.79 103.65 -25.8 102.73 C-25.82 99.78 -25.83 96.83 -25.84 93.88 C-25.84 92.87 -25.85 91.86 -25.85 90.82 C-25.87 85.48 -25.89 80.13 -25.9 74.78 C-25.91 69.27 -25.94 63.77 -25.98 58.26 C-26.01 54.01 -26.02 49.76 -26.02 45.51 C-26.03 43.48 -26.04 41.45 -26.06 39.43 C-26.25 16.75 -26.25 16.75 -19.16 8.39 C-18.32 7.69 -17.47 6.99 -16.6 6.27 C-15.76 5.55 -14.91 4.82 -14.04 4.08 C-9.32 0.57 -5.83 -0.03 0 0 Z " fill="#70D8BB" transform="translate(169.60235595703125,124.73257446289063)"/>
<path d="M0 0 C6.82 1.56 10.75 7.27 14.59 12.82 C14.59 13.48 14.59 14.14 14.59 14.82 C15.58 15.15 16.57 15.48 17.59 15.82 C19.34 17.86 19.34 17.86 21.15 20.32 C23.42 23.6 23.42 23.6 26.59 25.82 C26.59 26.48 26.59 27.14 26.59 27.82 C27.25 27.82 27.91 27.82 28.59 27.82 C30.13 29.54 31.6 31.33 33.03 33.14 C36.04 36.99 36.04 36.99 39.38 40.55 C40.59 41.82 40.59 41.82 40.59 43.82 C41.58 44.15 42.57 44.48 43.59 44.82 C43.59 45.48 43.59 46.14 43.59 46.82 C44.25 46.82 44.91 46.82 45.59 46.82 C45.92 47.48 46.25 48.14 46.59 48.82 C48.24 48.82 49.89 48.82 51.59 48.82 C51.59 48.16 51.59 47.5 51.59 46.82 C52.25 46.82 52.91 46.82 53.59 46.82 C53.84 46.27 54.08 45.71 54.34 45.14 C55.82 42.4 57.52 40.15 59.59 37.82 C60.25 37.82 60.91 37.82 61.59 37.82 C61.82 37.29 62.04 36.75 62.28 36.2 C64.61 31.97 67.91 27.98 71.59 24.82 C72.25 24.82 72.91 24.82 73.59 24.82 C74 23.93 74 23.93 74.42 23.02 C75.56 20.88 76.71 19.41 78.38 17.66 C78.91 17.1 79.44 16.53 79.98 15.95 C80.81 15.08 80.81 15.08 81.65 14.2 C85.56 10.33 85.56 10.33 88.59 5.82 C89.25 5.82 89.91 5.82 90.59 5.82 C90.59 5.16 90.59 4.5 90.59 3.82 C92.9 1.53 94.28 0.86 97.54 0.46 C98.58 0.48 99.63 0.49 100.71 0.51 C101.77 0.52 102.82 0.52 103.91 0.52 C106.59 0.82 106.59 0.82 108.59 2.82 C108.85 4.87 108.85 4.87 108.86 7.44 C108.87 8.41 108.87 9.39 108.88 10.39 C108.88 11.46 108.88 12.53 108.88 13.64 C108.89 14.76 108.89 15.89 108.9 17.05 C108.92 20.78 108.92 24.52 108.93 28.25 C108.93 30.84 108.94 33.43 108.95 36.02 C108.96 41.45 108.96 46.88 108.96 52.32 C108.96 58.6 108.98 64.87 109.01 71.15 C109.04 77.19 109.05 83.23 109.05 89.27 C109.05 91.84 109.06 94.41 109.07 96.98 C109.09 100.57 109.09 104.16 109.08 107.75 C109.09 108.82 109.1 109.89 109.11 110.99 C109.05 118.17 109.05 118.17 106.74 121.48 C103.85 123.28 101.82 123.34 98.43 123.36 C97.25 123.36 96.06 123.37 94.84 123.37 C92.98 123.35 92.98 123.35 91.09 123.32 C89.85 123.34 88.62 123.36 87.34 123.37 C85.56 123.36 85.56 123.36 83.75 123.36 C82.66 123.35 81.58 123.35 80.46 123.34 C77.59 122.82 77.59 122.82 75.24 121.43 C72.65 117.34 72.99 113.34 72.98 108.59 C72.96 107.6 72.95 106.6 72.93 105.58 C72.88 102.41 72.86 99.24 72.84 96.07 C72.81 93.92 72.78 91.77 72.75 89.62 C72.68 84.36 72.62 79.09 72.59 73.82 C71.1 74.32 71.1 74.32 69.59 74.82 C69.59 75.48 69.59 76.14 69.59 76.82 C68.93 76.82 68.27 76.82 67.59 76.82 C67.35 77.39 67.11 77.96 66.86 78.55 C65.34 81.27 63.52 83.05 61.28 85.2 C58.57 87.81 56.11 90.34 53.9 93.39 C51.59 95.82 51.59 95.82 48.69 96.23 C44.81 95.72 44.02 94.74 41.65 91.7 C38.67 88.04 35.7 85.06 31.94 82.21 C30.28 80.51 29.98 79.14 29.59 76.82 C28.93 76.82 28.27 76.82 27.59 76.82 C27.59 76.16 27.59 75.5 27.59 74.82 C26.27 74.49 24.95 74.16 23.59 73.82 C23.58 74.41 23.58 74.99 23.57 75.6 C23.51 81.66 23.42 87.73 23.33 93.79 C23.29 96.06 23.27 98.33 23.24 100.59 C23.21 103.84 23.16 107.1 23.1 110.35 C23.09 111.87 23.09 111.87 23.08 113.43 C23.06 114.37 23.04 115.31 23.02 116.28 C23.01 117.11 23 117.94 22.99 118.8 C22.79 119.8 22.79 119.8 22.59 120.82 C19.14 123.12 17.81 123.08 13.75 123.09 C12.6 123.09 11.46 123.1 10.28 123.1 C9.08 123.09 7.89 123.08 6.65 123.07 C5.46 123.08 4.27 123.09 3.04 123.1 C1.89 123.1 0.74 123.09 -0.44 123.09 C-2.01 123.09 -2.01 123.09 -3.62 123.08 C-6.43 122.82 -7.96 122.14 -10.41 120.82 C-10.43 105.33 -10.45 89.83 -10.46 74.33 C-10.47 67.13 -10.47 59.94 -10.49 52.74 C-10.5 46.47 -10.5 40.2 -10.5 33.93 C-10.51 30.61 -10.51 27.29 -10.52 23.97 C-10.52 20.27 -10.52 16.56 -10.52 12.86 C-10.53 11.75 -10.53 10.64 -10.53 9.5 C-10.53 8.5 -10.53 7.5 -10.53 6.46 C-10.53 5.59 -10.53 4.71 -10.53 3.81 C-10.22 -1.19 -3.83 0.01 0 0 Z " fill="#000100" transform="translate(422.41015625,138.17578125)"/>
<path d="M0 0 C3.24 2.67 6.34 5.36 9.12 8.5 C9.12 9.16 9.12 9.82 9.12 10.5 C9.79 10.5 10.44 10.5 11.12 10.5 C19.95 25.26 19.95 25.26 18.12 33.5 C13.84 33.72 9.56 33.89 5.26 33.99 C3.81 34.04 2.35 34.1 0.9 34.18 C-11.24 34.82 -11.24 34.82 -15.33 31.53 C-17.18 29.09 -17.18 29.09 -18.6 26.64 C-20.43 23.56 -22.54 22.64 -25.88 21.5 C-34.49 19.4 -43.94 19.71 -51.75 24.12 C-52.8 24.81 -52.8 24.81 -53.88 25.5 C-54.54 25.5 -55.19 25.5 -55.88 25.5 C-56.12 26.02 -56.37 26.53 -56.62 27.06 C-57.88 29.5 -57.88 29.5 -59.81 32.31 C-65.09 41.67 -65.71 52.14 -63.03 62.33 C-60 70.65 -55.33 76.23 -47.44 80.25 C-39.94 82.87 -31.1 82.63 -23.88 79.5 C-22.88 79.5 -21.89 79.5 -20.88 79.5 C-20.88 78.84 -20.88 78.18 -20.88 77.5 C-19.25 75.79 -17.58 74.12 -15.88 72.5 C-17.75 72.43 -17.75 72.43 -19.67 72.35 C-21.32 72.28 -22.97 72.2 -24.62 72.12 C-25.45 72.09 -26.28 72.06 -27.12 72.03 C-27.92 71.99 -28.72 71.95 -29.55 71.91 C-30.65 71.87 -30.65 71.87 -31.77 71.82 C-34.12 71.46 -35.81 70.66 -37.88 69.5 C-37.9 65.02 -37.92 60.54 -37.94 56.06 C-37.95 54.78 -37.95 53.5 -37.96 52.19 C-37.97 50.97 -37.97 49.76 -37.97 48.5 C-37.98 47.38 -37.98 46.25 -37.99 45.09 C-37.88 42.5 -37.88 42.5 -36.88 41.5 C-35.1 41.4 -33.32 41.37 -31.54 41.37 C-30.41 41.37 -29.27 41.36 -28.1 41.36 C-26.86 41.36 -25.62 41.37 -24.34 41.37 C-23.08 41.37 -21.82 41.37 -20.52 41.36 C-17.85 41.36 -15.17 41.36 -12.5 41.37 C-9.07 41.38 -5.63 41.37 -2.2 41.37 C1.06 41.36 4.33 41.36 7.59 41.37 C8.83 41.37 10.07 41.36 11.35 41.36 C12.48 41.36 13.62 41.37 14.79 41.37 C15.8 41.37 16.81 41.37 17.85 41.37 C20.12 41.5 20.12 41.5 21.12 42.5 C21.41 46.45 21.36 50.42 21.38 54.38 C21.4 55.47 21.42 56.57 21.44 57.7 C21.49 68.14 19.37 77 14.44 86.19 C14.12 86.81 13.8 87.42 13.47 88.06 C12.7 89.55 11.91 91.02 11.12 92.5 C10.46 92.5 9.81 92.5 9.12 92.5 C8.75 93.37 8.75 93.37 8.38 94.25 C6.94 96.83 5.34 98.56 3.12 100.5 C2.46 100.5 1.81 100.5 1.12 100.5 C1.12 101.16 1.12 101.82 1.12 102.5 C-1.39 103.8 -3.91 105.09 -6.44 106.38 C-7.14 106.74 -7.85 107.1 -8.57 107.48 C-15.8 111.14 -22.5 112.82 -30.56 113.19 C-31.36 113.22 -32.15 113.26 -32.97 113.3 C-49.69 113.96 -63.11 110.35 -76.88 100.5 C-77.64 99.98 -78.4 99.45 -79.18 98.91 C-79.74 98.45 -80.3 97.98 -80.88 97.5 C-80.88 96.84 -80.88 96.18 -80.88 95.5 C-82.36 95 -82.36 95 -83.88 94.5 C-83.88 93.84 -83.88 93.18 -83.88 92.5 C-84.54 92.5 -85.19 92.5 -85.88 92.5 C-88.88 88.12 -88.88 88.12 -88.88 85.5 C-89.54 85.5 -90.19 85.5 -90.88 85.5 C-97.86 72.25 -99.29 60.35 -98.88 45.5 C-98.86 44.61 -98.84 43.71 -98.82 42.79 C-98.27 31.91 -94.35 21.25 -87.88 12.5 C-87.21 12.5 -86.56 12.5 -85.88 12.5 C-85.21 10.85 -84.56 9.2 -83.88 7.5 C-83.21 7.5 -82.56 7.5 -81.88 7.5 C-81.88 6.84 -81.88 6.18 -81.88 5.5 C-58.74 -13.83 -25.26 -19.21 0 0 Z " fill="#000100" transform="translate(1114.875,148.5)"/>
<path d="M0 0 C1.02 -0.02 2.03 -0.03 3.08 -0.05 C18.04 -0.06 32.68 5.72 44.19 15.31 C44.19 15.97 44.19 16.63 44.19 17.31 C44.85 17.31 45.51 17.31 46.19 17.31 C46.19 17.97 46.19 18.63 46.19 19.31 C47.67 19.81 47.67 19.81 49.19 20.31 C54.16 25.92 57.18 32.08 59.46 39.16 C60 41.27 60 41.27 61.19 42.31 C63.29 49.37 63.37 56.58 63.38 63.88 C63.38 64.77 63.38 65.66 63.38 66.58 C63.32 73.04 63.32 73.04 62.19 75.31 C62.17 76.51 62.15 77.7 62.12 78.94 C60.9 90.65 52.83 102.75 44.19 110.31 C41.92 111.57 41.92 111.57 40.19 112.31 C40.19 112.97 40.19 113.63 40.19 114.31 C39.2 114.31 38.21 114.31 37.19 114.31 C37.19 114.97 37.19 115.63 37.19 116.31 C35.29 117.27 33.4 118.23 31.5 119.19 C30.44 119.72 29.39 120.25 28.3 120.8 C18.97 125.32 10.5 126.64 0.19 126.5 C-1.24 126.5 -1.24 126.5 -2.7 126.5 C-9.67 126.45 -9.67 126.45 -10.81 125.31 C-12.37 124.96 -13.93 124.66 -15.5 124.38 C-19.4 123.63 -23.08 122.69 -26.81 121.31 C-26.81 120.65 -26.81 119.99 -26.81 119.31 C-27.49 119.23 -28.17 119.15 -28.88 119.06 C-32.69 118.09 -35.45 116.35 -38.81 114.31 C-38.81 113.65 -38.81 112.99 -38.81 112.31 C-39.68 111.94 -39.68 111.94 -40.57 111.55 C-49.82 106.43 -56.56 94 -59.69 84.25 C-64.7 62.9 -61.56 43.1 -50.81 24.31 C-50.15 24.31 -49.49 24.31 -48.81 24.31 C-48.55 23.73 -48.3 23.15 -48.03 22.55 C-41.93 11.32 -27.99 4.83 -16.28 1.22 C-10.89 -0.07 -5.52 -0.02 0 0 Z M-13.81 36.31 C-14.45 36.67 -15.09 37.04 -15.75 37.41 C-21.79 41.24 -24.8 46.41 -27.12 53.06 C-28.87 61.61 -28.42 69.4 -24.81 77.31 C-24.42 78.3 -24.03 79.29 -23.62 80.31 C-23.36 80.97 -23.09 81.63 -22.81 82.31 C-22.15 82.31 -21.49 82.31 -20.81 82.31 C-20.61 82.87 -20.4 83.43 -20.19 84 C-16.96 89.42 -12.19 92.09 -6.29 93.8 C2.9 95.7 10.15 94.13 18.19 89.31 C19.99 87.87 19.99 87.87 21.19 86.31 C21.19 85.65 21.19 84.99 21.19 84.31 C21.85 84.31 22.51 84.31 23.19 84.31 C28.64 76.36 29.98 67.79 29.19 58.31 C28.37 54.26 27.33 50.29 26.19 46.31 C25.53 46.31 24.87 46.31 24.19 46.31 C23.94 45.57 23.69 44.83 23.44 44.06 C20.76 38.17 15.99 35.77 10.26 33.3 C1.65 30.53 -6.14 31.8 -13.81 36.31 Z " fill="#000100" transform="translate(939.8125,136.6875)"/>
<path d="M0 0 C7.75 -0.12 15.49 -0.21 23.24 -0.26 C26.84 -0.28 30.43 -0.32 34.03 -0.38 C37.51 -0.43 41 -0.46 44.48 -0.47 C46.43 -0.49 48.39 -0.53 50.34 -0.57 C61.11 -0.57 70.76 1.97 78.62 9.62 C79.42 10.38 80.22 11.14 81.04 11.91 C83.63 14.67 85 16.13 85 20 C85.66 20 86.32 20 87 20 C90.92 27.69 91.19 36.54 90 45 C88.75 48.69 87.07 51.73 85 55 C84.67 55.99 84.34 56.98 84 58 C84.5 58.45 84.99 58.91 85.5 59.38 C87 61 87 61 87 63 C88.49 63.5 88.49 63.5 90 64 C96.16 71.34 96.05 80.77 95.28 89.82 C93.88 100.63 88.35 108.72 80.13 115.55 C70.72 122.16 59.1 122.44 48.03 122.33 C46.74 122.33 45.46 122.32 44.13 122.32 C41.44 122.32 38.75 122.3 36.05 122.28 C32.6 122.25 29.15 122.24 25.7 122.24 C22.39 122.23 19.09 122.22 15.78 122.2 C14.54 122.2 13.3 122.19 12.03 122.19 C10.89 122.18 9.74 122.17 8.57 122.16 C7.56 122.15 6.56 122.15 5.52 122.14 C3 122 3 122 0 121 C-0.97 118.1 -1.13 116.27 -1.13 113.25 C-1.13 112.27 -1.13 111.29 -1.14 110.29 C-1.13 109.22 -1.13 108.15 -1.13 107.04 C-1.13 105.91 -1.13 104.79 -1.13 103.62 C-1.14 99.88 -1.14 96.14 -1.13 92.4 C-1.13 89.81 -1.13 87.22 -1.14 84.63 C-1.14 79.19 -1.14 73.76 -1.13 68.32 C-1.12 62.04 -1.13 55.75 -1.13 49.46 C-1.14 43.42 -1.14 37.37 -1.13 31.33 C-1.13 28.75 -1.13 26.18 -1.14 23.6 C-1.14 20.01 -1.13 16.42 -1.13 12.83 C-1.13 11.76 -1.13 10.68 -1.14 9.58 C-1.13 8.6 -1.13 7.63 -1.13 6.62 C-1.13 5.77 -1.13 4.92 -1.13 4.05 C-1 2 -1 2 0 0 Z M32 30 C32 35.28 32 40.56 32 46 C35.42 46.11 38.83 46.19 42.25 46.25 C43.22 46.28 44.19 46.32 45.18 46.35 C50.74 46.51 50.74 46.51 55.64 44.23 C57.06 41.91 57.54 40.7 57.5 38 C57.51 37.34 57.52 36.68 57.53 36 C56.69 32.82 55.76 31.85 53 30 C49.4 29.51 45.87 29.62 42.25 29.75 C41.27 29.77 40.28 29.79 39.27 29.8 C36.85 29.85 34.42 29.92 32 30 Z M32 74 C32 79.94 32 85.88 32 92 C36.06 92.11 40.12 92.19 44.19 92.25 C45.91 92.3 45.91 92.3 47.67 92.35 C48.79 92.36 49.9 92.38 51.04 92.39 C52.57 92.42 52.57 92.42 54.14 92.45 C57.76 91.88 59.42 90.56 62 88 C62.6 85.42 62.6 85.42 62.31 82.75 C62.27 81.86 62.22 80.97 62.18 80.05 C62.12 79.37 62.06 78.7 62 78 C61.34 78 60.68 78 60 78 C60 77.34 60 76.68 60 76 C56.55 73.7 55.29 73.76 51.24 73.8 C49.56 73.81 49.56 73.81 47.85 73.82 C46.68 73.84 45.52 73.86 44.31 73.88 C42.54 73.89 42.54 73.89 40.74 73.9 C37.83 73.93 34.91 73.96 32 74 Z " fill="#000100" transform="translate(675,139)"/>
<path d="M0 0 C1.18 -0 2.36 -0.01 3.57 -0.01 C4.85 -0.01 6.13 -0.01 7.46 -0 C8.76 -0 10.07 -0.01 11.41 -0.01 C14.18 -0.01 16.95 -0.01 19.71 -0 C23.27 0 26.82 0 30.38 -0 C33.76 -0.01 37.14 -0.01 40.52 -0 C41.8 -0.01 43.08 -0.01 44.4 -0.01 C46.17 -0 46.17 -0 47.97 0 C49.02 0 50.06 0 51.13 0 C53.49 0.13 53.49 0.13 54.49 1.13 C54.77 5.44 54.72 9.75 54.74 14.07 C54.76 15.29 54.78 16.5 54.8 17.76 C54.81 19.5 54.81 19.5 54.81 21.28 C54.83 22.89 54.83 22.89 54.84 24.53 C54.73 25.39 54.61 26.25 54.49 27.13 C51.49 29.13 51.49 29.13 40.49 29.13 C40.49 49.92 40.49 70.71 40.49 92.13 C45.11 92.13 49.73 92.13 54.49 92.13 C56.6 96.35 55.67 101.93 55.67 106.57 C55.69 107.73 55.7 108.88 55.71 110.08 C55.71 111.19 55.71 112.3 55.72 113.44 C55.72 114.46 55.73 115.48 55.73 116.53 C55.49 119.13 55.49 119.13 53.49 122.13 C51.06 122.51 51.06 122.51 47.98 122.52 C46.83 122.53 45.68 122.54 44.49 122.55 C43.24 122.54 42 122.53 40.71 122.53 C39.43 122.53 38.15 122.53 36.84 122.54 C34.13 122.54 31.43 122.53 28.72 122.52 C25.25 122.5 21.78 122.51 18.32 122.53 C15.01 122.54 11.7 122.54 8.4 122.53 C7.15 122.53 5.9 122.54 4.62 122.55 C2.89 122.53 2.89 122.53 1.12 122.52 C-0.41 122.51 -0.41 122.51 -1.96 122.51 C-4.51 122.13 -4.51 122.13 -6.34 120.77 C-8.12 118.28 -7.87 116.21 -7.84 113.18 C-7.84 112.03 -7.83 110.87 -7.83 109.67 C-7.8 107.86 -7.8 107.86 -7.76 106 C-7.76 104.79 -7.75 103.57 -7.75 102.31 C-7.67 93.28 -7.67 93.28 -6.51 92.13 C-1.89 92.13 2.73 92.13 7.49 92.13 C7.49 71.34 7.49 50.55 7.49 29.13 C3.53 29.13 -0.43 29.13 -4.51 29.13 C-6.51 27.13 -6.51 27.13 -6.76 24.53 C-6.75 23.46 -6.75 22.39 -6.74 21.28 C-6.74 20.12 -6.74 18.96 -6.74 17.76 C-6.73 16.54 -6.71 15.32 -6.7 14.07 C-6.7 12.84 -6.7 11.62 -6.7 10.36 C-6.65 0.01 -6.65 0.01 0 0 Z " fill="#000100" transform="translate(555.513671875,138.87060546875)"/>
<path d="M0 0 C1.02 -0 1.02 -0 2.06 -0.01 C3.5 -0.01 4.94 -0 6.38 0 C8.59 0.02 10.79 0 13 -0.01 C14.39 -0.01 15.79 -0 17.19 0 C18.46 0 19.74 0 21.05 0.01 C24.09 0.27 24.09 0.27 26.09 2.27 C26.28 5.13 26.35 7.89 26.32 10.75 C26.32 11.63 26.32 12.51 26.32 13.42 C26.32 16.33 26.3 19.24 26.29 22.15 C26.29 24.16 26.28 26.18 26.28 28.19 C26.27 33.5 26.25 38.81 26.23 44.12 C26.21 49.54 26.2 54.96 26.19 60.37 C26.17 71 26.14 81.63 26.09 92.27 C27.36 92.26 28.63 92.26 29.93 92.25 C34.62 92.23 39.3 92.22 43.98 92.21 C46.01 92.21 48.04 92.2 50.07 92.19 C52.99 92.18 55.9 92.17 58.81 92.17 C60.18 92.16 60.18 92.16 61.58 92.15 C63.75 92.15 65.92 92.2 68.09 92.27 C69.86 94.04 69.22 96.59 69.23 98.98 C69.23 100.14 69.23 101.3 69.23 102.5 C69.23 103.72 69.22 104.94 69.22 106.2 C69.22 107.42 69.23 108.64 69.23 109.9 C69.23 111.06 69.23 112.22 69.23 113.42 C69.23 114.49 69.22 115.56 69.22 116.67 C69.09 119.27 69.09 119.27 68.09 121.27 C64.67 122.41 62 122.41 58.39 122.44 C57.71 122.45 57.04 122.46 56.34 122.46 C54.1 122.48 51.87 122.49 49.63 122.5 C48.86 122.51 48.1 122.51 47.31 122.52 C43.27 122.54 39.22 122.55 35.18 122.56 C31 122.57 26.82 122.61 22.65 122.65 C19.43 122.67 16.22 122.68 13.01 122.68 C11.47 122.69 9.93 122.7 8.39 122.72 C6.23 122.74 4.08 122.74 1.93 122.74 C0.7 122.74 -0.53 122.75 -1.79 122.75 C-4.91 122.27 -4.91 122.27 -7.3 120.93 C-9.92 116.58 -9.44 112.17 -9.39 107.19 C-9.4 106.07 -9.4 104.94 -9.4 103.77 C-9.41 100.04 -9.39 96.31 -9.37 92.57 C-9.36 89.98 -9.36 87.39 -9.36 84.8 C-9.36 79.37 -9.35 73.94 -9.32 68.51 C-9.29 62.23 -9.28 55.95 -9.28 49.67 C-9.28 43.63 -9.27 37.59 -9.25 31.55 C-9.25 28.98 -9.24 26.41 -9.24 23.84 C-9.24 20.25 -9.22 16.66 -9.2 13.08 C-9.2 12.01 -9.2 10.94 -9.2 9.83 C-9.19 8.86 -9.18 7.89 -9.17 6.88 C-9.17 6.03 -9.17 5.19 -9.16 4.31 C-8.51 -0.91 -4.23 0.01 0 0 Z " fill="#000100" transform="translate(798.90625,138.734375)"/>
<path d="M0 0 C0.33 0 0.66 0 1 0 C1 49.5 1 99 1 150 C0.67 150 0.34 150 0 150 C0 100.5 0 51 0 0 Z " fill="#000100" transform="translate(371,148)"/>
<path d="M0 0 C3 1 3 1 3 1 Z " fill="#000100" transform="translate(160,262)"/>
<path d="" fill="#000100" transform="translate(0,0)"/>
<path d="" fill="#000100" transform="translate(0,0)"/>
<path d="" fill="#000100" transform="translate(0,0)"/>
<path d="" fill="#000100" transform="translate(0,0)"/>
</svg>
